<svg width="4096" height="4096" viewBox="0 0 4096 4096" fill="none" xmlns="http://www.w3.org/2000/svg">
<path d="M1445.24 2458.89L757.302 2055.6L1445.24 1652.31C1452.9 1647.82 1457.6 1639.61 1457.6 1630.74V1417.52C1457.6 1397.93 1436.09 1385.95 1419.43 1396.27L498.831 1966.8C491.475 1971.36 487 1979.4 487 1988.05V2123.15C487 2131.8 491.475 2139.84 498.831 2144.4L1419.43 2714.93C1436.09 2725.25 1457.6 2713.27 1457.6 2693.68V2480.46C1457.6 2471.59 1452.9 2463.38 1445.24 2458.89Z" fill="#37FF8B" stroke="#262626" stroke-width="40"/>
<path d="M2651.26 1640.25L3339.64 2048.33L2651.26 2456.41C2643.67 2460.91 2639.01 2469.08 2639.01 2477.91V2693.62C2639.01 2713.27 2660.64 2725.24 2677.29 2714.81L3597.89 2137.87C3605.18 2133.3 3609.61 2125.29 3609.61 2116.68V1979.97C3609.61 1971.36 3605.18 1963.36 3597.89 1958.79L2677.29 1381.85C2660.64 1371.42 2639.01 1383.39 2639.01 1403.03V1618.74C2639.01 1627.57 2643.67 1635.75 2651.26 1640.25Z" fill="#37FF8B" stroke="#262626" stroke-width="40"/>
<path d="M1835.66 2177.38L2260.96 2177.38V2666.31C2260.96 2697.43 2286.19 2722.66 2317.31 2722.66H2477.26C2508.38 2722.66 2533.61 2697.43 2533.61 2666.31V2121.03V1990.17V1444.89C2533.61 1413.77 2508.38 1388.54 2477.26 1388.54H2317.31C2286.19 1388.54 2260.96 1413.77 2260.96 1444.89V1933.81L1835.66 1933.81V1444.89C1835.66 1413.77 1810.43 1388.54 1779.31 1388.54H1619.36C1588.24 1388.54 1563.01 1413.77 1563.01 1444.89V1990.11C1563.01 1990.13 1563.01 1990.15 1563.01 1990.17L1563.01 2121.03C1563.01 2121.05 1563.01 2121.08 1563.01 2121.1V2666.31C1563.01 2697.43 1588.24 2722.66 1619.36 2722.66H1779.31C1810.43 2722.66 1835.66 2697.43 1835.66 2666.31V2177.38Z" fill="#D4D4D4" stroke="#262626" stroke-width="40"/>
</svg>
