<svg width="4096" height="4096" viewBox="0 0 4096 4096" fill="none" xmlns="http://www.w3.org/2000/svg">
<rect width="4096" height="4096" fill="#FFFDFA"/>
<path d="M1445.24 2458.89L757.302 2055.6L1445.24 1652.31C1452.9 1647.82 1457.6 1639.61 1457.6 1630.74V1417.52C1457.6 1397.93 1436.09 1385.95 1419.43 1396.27L498.831 1966.8C491.475 1971.36 487 1979.4 487 1988.05V2123.15C487 2131.8 491.475 2139.84 498.831 2144.4L1419.43 2714.93C1436.09 2725.25 1457.6 2713.27 1457.6 2693.68V2480.46C1457.6 2471.59 1452.9 2463.38 1445.24 2458.89Z" fill="#37FF8B" stroke="#262626" stroke-width="40"/>
<path d="M2651.27 1640.25L3339.64 2048.33L2651.27 2456.41C2643.67 2460.91 2639.01 2469.08 2639.01 2477.91V2693.62C2639.01 2713.27 2660.64 2725.24 2677.29 2714.81L3597.89 2137.87C3605.18 2133.3 3609.61 2125.29 3609.61 2116.68V1979.97C3609.61 1971.36 3605.19 1963.36 3597.89 1958.79L2677.29 1381.85C2660.64 1371.42 2639.01 1383.39 2639.01 1403.03V1618.74C2639.01 1627.57 2643.67 1635.75 2651.27 1640.25Z" fill="#37FF8B" stroke="#262626" stroke-width="40"/>
<path d="M2477.26 1953.81C2497.33 1953.81 2513.61 1970.09 2513.61 1990.17V2121.03C2513.61 2141.11 2497.33 2157.38 2477.26 2157.38L1619.36 2157.38C1599.28 2157.38 1583.01 2141.11 1583.01 2121.03L1583.01 1990.17C1583.01 1970.09 1599.28 1953.81 1619.36 1953.81L2477.26 1953.81Z" fill="#262626"/>
<path d="M1583.01 1444.89C1583.01 1424.82 1599.28 1408.54 1619.36 1408.54H1779.31C1799.38 1408.54 1815.66 1424.82 1815.66 1444.89V2666.31C1815.66 2686.38 1799.38 2702.66 1779.31 2702.66H1619.36C1599.28 2702.66 1583.01 2686.38 1583.01 2666.31V1444.89Z" fill="#262626"/>
<path d="M2280.96 1444.89C2280.96 1424.82 2297.23 1408.54 2317.31 1408.54H2477.26C2497.33 1408.54 2513.61 1424.82 2513.61 1444.89V2666.31C2513.61 2686.38 2497.33 2702.66 2477.26 2702.66H2317.31C2297.23 2702.66 2280.96 2686.38 2280.96 2666.31V1444.89Z" fill="#262626"/>
</svg>
